<?xml version="1.0" standalone="no"?>
<!DOCTYPE svg PUBLIC "-//W3C//DTD SVG 20010904//EN"
 "http://www.w3.org/TR/2001/REC-SVG-20010904/DTD/svg10.dtd">
<svg version="1.0" xmlns="http://www.w3.org/2000/svg"
 width="500.000000pt" height="500.000000pt" viewBox="0 0 500.000000 500.000000"
 preserveAspectRatio="xMidYMid meet">
<metadata>
Created by potrace 1.14, written by Peter Selinger 2001-2017
</metadata>
<g transform="translate(0.000000,500.000000) scale(0.100000,-0.100000)"
fill="#000000" stroke="none">
<path d="M991 3354 c-175 -48 -322 -194 -375 -373 -11 -38 -15 -84 -12 -160 5
-187 47 -266 283 -527 88 -99 166 -204 205 -279 l32 -63 38 69 c36 66 128 193
180 249 144 155 215 246 256 328 42 85 55 157 49 266 -6 113 -8 123 -52 214
-60 128 -186 232 -330 274 -66 20 -206 21 -274 2z"/>
<path d="M2474 2902 c-5 -4 -9 -69 -9 -152 l0 -145 26 -3 26 -3 -1 146 c-1
121 -4 148 -17 155 -8 5 -19 6 -25 2z"/>
<path d="M2578 2902 c-19 -4 -30 -39 -14 -45 6 -2 28 -3 48 -2 20 1 39 -3 40
-9 2 -6 3 -64 3 -129 l-1 -118 26 3 25 3 0 120 c-1 132 1 135 63 130 28 -2 32
1 32 21 0 16 -6 24 -17 25 -55 3 -192 4 -205 1z"/>
<path d="M3606 2898 c-111 -24 -161 -146 -97 -236 42 -60 142 -80 211 -43 33
18 35 21 35 72 -1 48 -3 54 -23 57 -20 3 -22 -1 -22 -41 0 -40 -3 -46 -27 -55
-56 -19 -112 3 -139 53 -39 72 27 161 111 150 20 -2 43 -10 51 -16 17 -14 44
-5 44 15 0 31 -86 57 -144 44z"/>
<path d="M3861 2900 l-35 -5 0 -147 -1 -148 28 0 c25 0 27 3 27 45 l0 45 53 0
c106 0 154 61 123 158 -14 43 -100 66 -195 52z m131 -54 c25 -11 32 -54 13
-83 -14 -21 -22 -24 -73 -21 l-56 3 3 50 c1 27 5 53 7 56 5 8 83 4 106 -5z"/>
<path d="M4186 2899 c-46 -8 -76 -39 -76 -79 0 -39 27 -66 85 -85 59 -19 75
-31 75 -56 0 -12 -10 -21 -27 -26 -37 -9 -61 -5 -101 18 -31 18 -33 18 -39 1
-3 -9 -8 -20 -10 -24 -9 -17 74 -46 130 -45 64 2 93 22 103 72 8 43 -22 76
-90 99 -72 25 -84 38 -57 65 20 20 65 20 105 -1 19 -10 36 3 36 28 0 24 -79
43 -134 33z"/>
<path d="M2130 2898 c0 -2 26 -68 59 -148 55 -138 59 -145 86 -145 27 0 31 7
82 130 73 178 70 165 34 165 -18 0 -31 -5 -31 -13 0 -12 -75 -216 -82 -223 -2
-2 -24 51 -48 116 -42 114 -46 120 -72 120 -15 0 -28 -1 -28 -2z"/>
<path d="M2933 2888 c-5 -7 -31 -65 -58 -128 -26 -63 -52 -119 -57 -125 -16
-18 -8 -35 17 -35 19 0 28 8 40 36 l14 35 76 -2 76 -2 14 -33 c11 -26 20 -34
39 -34 15 0 26 3 26 6 0 3 -13 35 -30 71 -16 35 -30 67 -30 70 0 3 -16 39 -35
79 -29 62 -38 74 -58 74 -14 0 -29 -6 -34 -12z m80 -162 c1 -5 -22 -11 -50
-12 -29 -1 -53 -1 -53 1 0 1 7 20 16 41 9 22 21 50 26 64 10 24 11 23 35 -29
13 -30 25 -59 26 -65z"/>
<path d="M3165 2753 l0 -148 90 0 c83 0 90 1 90 20 0 17 -7 20 -45 22 -25 0
-54 2 -66 2 -19 1 -20 6 -19 126 l1 125 -26 0 -26 0 1 -147z"/>
<path d="M2703 2463 c-16 -6 -5 -33 13 -33 8 0 14 6 14 14 0 18 -11 25 -27 19z"/>
<path d="M4359 2449 c-11 -11 -19 -25 -19 -33 0 -8 -6 -17 -12 -20 -10 -5 -10
-7 0 -12 7 -4 12 -27 12 -65 0 -44 4 -59 14 -59 19 0 23 16 20 69 -3 36 0 44
16 48 26 7 26 23 1 23 -13 0 -18 6 -17 18 2 10 11 17 24 16 31 -2 35 23 5 29
-17 3 -32 -2 -44 -14z"/>
<path d="M3270 2448 c0 -6 14 -36 32 -66 17 -31 32 -70 32 -86 1 -21 7 -32 19
-34 14 -3 17 4 17 32 0 22 12 58 30 89 17 30 30 59 30 65 0 23 -31 -1 -51 -39
-11 -22 -23 -39 -27 -39 -5 0 -18 18 -30 39 -22 38 -52 61 -52 39z"/>
<path d="M3991 2444 c-22 -9 -31 -20 -31 -36 0 -34 10 -44 58 -63 76 -31 35
-66 -45 -40 -33 11 -30 -18 2 -33 39 -18 83 -14 105 8 35 35 23 63 -41 94 -52
26 -48 41 9 40 33 0 42 3 40 15 -4 22 -60 31 -97 15z"/>
<path d="M1912 2355 c1 -80 3 -95 16 -93 8 2 17 14 19 28 3 24 29 59 36 49 43
-60 61 -79 77 -79 18 0 16 6 -15 49 -19 26 -35 54 -35 62 0 7 14 28 32 46 29
30 30 33 11 33 -11 0 -36 -17 -54 -38 -50 -56 -55 -57 -54 -6 2 36 -1 44 -16
44 -15 0 -17 -11 -17 -95z"/>
<path d="M2154 2398 c-42 -20 -51 -83 -17 -120 19 -21 71 -24 98 -5 22 17 4
32 -22 19 -10 -6 -28 -6 -40 -1 -41 15 -25 29 32 29 55 0 55 0 50 28 -5 30
-38 62 -64 61 -9 0 -26 -5 -37 -11z m66 -33 c7 -8 9 -15 4 -16 -33 -4 -74 -6
-74 -4 0 34 47 47 70 20z"/>
<path d="M2337 2402 c-24 -5 -47 -54 -40 -83 13 -53 64 -75 114 -48 26 14 15
31 -14 20 -24 -9 -67 3 -67 19 0 6 24 10 54 10 52 0 54 1 51 26 -5 45 -45 69
-98 56z m61 -34 c20 -20 14 -26 -22 -24 -40 1 -56 13 -36 26 21 13 44 12 58
-2z"/>
<path d="M2497 2403 c-4 -3 -7 -49 -7 -100 0 -85 2 -94 18 -91 12 2 16 12 15
30 -2 27 -1 27 40 22 47 -7 73 12 80 57 10 56 -59 111 -98 79 -9 -7 -15 -8
-20 0 -7 12 -19 13 -28 3z m101 -35 c32 -32 -4 -93 -45 -77 -23 8 -27 18 -23
54 4 33 44 47 68 23z"/>
<path d="M2698 2351 c-4 -73 0 -91 18 -91 11 0 14 17 14 75 0 58 -3 75 -14 75
-10 0 -15 -16 -18 -59z"/>
<path d="M2797 2401 c-2 -3 -3 -35 -2 -71 0 -53 4 -65 18 -68 14 -3 17 5 17
47 0 53 21 78 54 65 16 -6 17 -12 20 -76 1 -22 6 -33 16 -33 11 0 15 13 16 50
1 79 -24 107 -80 86 -14 -6 -26 -7 -26 -2 0 9 -29 11 -33 2z"/>
<path d="M3006 2390 c-24 -26 -24 -81 0 -104 18 -19 65 -21 82 -4 9 9 12 9 12
-2 -1 -39 -43 -60 -81 -40 -15 8 -19 7 -19 -4 0 -20 12 -26 56 -28 57 -2 74
26 74 123 0 72 -9 96 -25 69 -4 -7 -13 -7 -24 -1 -25 14 -59 10 -75 -9z m84
-30 c26 -48 -28 -92 -61 -51 -18 22 -16 49 5 63 20 14 45 8 56 -12z"/>
<path d="M3497 2390 c-55 -43 -23 -130 48 -130 62 0 100 84 56 124 -30 28 -73
30 -104 6z m77 -26 c21 -20 20 -47 -2 -67 -37 -34 -94 29 -62 69 16 18 45 18
64 -2z"/>
<path d="M3670 2345 c0 -61 2 -66 26 -77 19 -9 33 -9 55 -1 16 6 27 7 23 2 -3
-5 3 -9 14 -9 17 0 19 7 18 72 -1 47 -5 73 -13 76 -14 4 -14 4 -18 -50 -4 -54
-12 -68 -39 -68 -28 0 -36 16 -36 76 0 32 -4 44 -15 44 -12 0 -15 -14 -15 -65z"/>
<path d="M4173 2399 c-37 -14 -26 -28 18 -26 26 1 44 -3 46 -10 3 -9 -5 -13
-24 -13 -33 0 -73 -25 -73 -45 0 -28 30 -44 80 -43 45 1 49 4 52 27 4 30 -7
99 -16 108 -10 10 -58 11 -83 2z m64 -86 c7 -19 -35 -37 -53 -22 -10 8 -11 15
-4 24 13 15 52 14 57 -2z"/>
<path d="M4475 2398 c-28 -16 -35 -28 -35 -65 0 -43 30 -73 74 -73 18 0 39 6
45 13 15 19 3 27 -24 17 -18 -7 -30 -4 -47 10 l-23 19 58 1 c53 0 57 2 57 23
0 28 -39 67 -66 67 -10 0 -28 -6 -39 -12z m59 -24 c31 -12 17 -30 -24 -30 -42
0 -47 5 -28 24 13 13 28 15 52 6z"/>
</g>
</svg>
